<svg xmlns="http://www.w3.org/2000/svg">
  <symbol id="ufollow" viewBox="0 0 412.699 96">
    <path d="M34.13 78.716h-.1c-9.56 0-17.472-7.785-17.504-17.446V33.908H0v27.358c.008 4.605.998 9.1 2.752 13.266a31.13 31.13 0 0 0 7.266 10.789c3.083 3.083 6.716 5.615 10.8 7.266 4.183 1.76 8.697 2.642 13.2 2.642H49.54V33.91h-15.4zM85.356 34.13v-.1c0-9.578 7.817-17.505 17.505-17.505V0c-4.624 0-9.138 1-13.32 2.752a31.13 31.13 0 0 0-10.789 7.266c-3.083 3.083-5.615 6.716-7.266 10.8-1.76 4.183-2.642 8.697-2.642 13.2v61.2h16.514V49.54h17.505v-15.4zM140.252 96c4.183 0 8.367-.88 12.22-2.422 3.743-1.65 7.156-3.853 10.018-6.716 2.862-2.972 5.064-6.275 6.716-10.018 1.65-3.853 2.422-8.037 2.422-12.22 0-4.294-.77-8.367-2.422-12.22-1.65-3.743-3.853-7.156-6.716-10.018-2.972-2.862-6.275-5.064-10.018-6.716-3.853-1.65-8.037-2.422-12.22-2.422s-8.367.77-12.22 2.422c-3.743 1.65-7.046 3.853-10.018 6.716-2.862 2.972-5.064 6.275-6.716 10.018-1.54 3.853-2.422 7.927-2.422 12.22 0 4.183.88 8.367 2.422 12.22 1.65 3.743 3.853 7.046 6.716 10.018 2.972 2.862 6.275 5.064 10.018 6.716 3.853 1.54 8.037 2.422 12.22 2.422zm0-46.24c8.147 0 14.862 6.716 14.862 14.862s-6.716 14.862-14.862 14.862S125.4 72.77 125.4 64.624s6.716-14.862 14.862-14.862zm47.128 45.47h16.624V6.495L187.38 12zm36.053 0h16.624V6.495L223.433 12zm63.465.77c4.183 0 8.367-.88 12.22-2.422 3.743-1.65 7.156-3.853 10.018-6.716 2.862-2.972 5.064-6.275 6.716-10.018 1.65-3.853 2.422-8.037 2.422-12.22 0-4.294-.77-8.367-2.422-12.22-1.65-3.743-3.853-7.156-6.716-10.018-2.972-2.862-6.275-5.064-10.018-6.716-3.853-1.65-8.037-2.422-12.22-2.422s-8.367.77-12.22 2.422c-3.743 1.65-7.046 3.853-10.018 6.716-2.862 2.972-5.064 6.275-6.716 10.018-1.54 3.853-2.422 7.927-2.422 12.22 0 4.183.88 8.367 2.422 12.22 1.65 3.743 3.853 7.046 6.716 10.018 2.972 2.862 6.275 5.064 10.018 6.716 3.853 1.54 8.037 2.422 12.22 2.422zm0-46.24c8.147 0 14.862 6.716 14.862 14.862s-6.716 14.862-14.862 14.862-14.862-6.716-14.862-14.862 6.716-14.862 14.862-14.862zm90.682 45.47h13.982L412.7 33.9h-17.395l-10.57 31.927L374.717 33.9h-13.32L351.6 65.837 340.92 33.9h-17.395l21.248 61.32h13.65L368 64.845z"/>
  </symbol>
  <symbol id="u" viewBox="0 0 229.222 256">
    <path d="M77.493 255.77c-26.453-2.917-46.064-14.55-59.545-35.326C7.525 204.382 1.715 183.602.364 157.552-.072 149.144-.14 3.688.29 3.005 1.06 1.786 13.977 0 22.017 0c13.6 0 23.307 2.752 32.23 9.138 9.782 7 16.92 17.78 20.5 30.958 2.248 8.278 2.104 4.614 2.368 60.33l1.058 55.49c1.7 9.09 2.902 12.874 6.002 18.876 4.214 8.157 9.97 13.455 17.793 16.37 4.745 1.77 8.67 2.412 14.72 2.412 9.553 0 16.45-2.1 23.684-7.206 3.844-2.714 9.576-8.966 11.308-12.333.303-.59.4-23.304.407-85.94L152.4 2.76c.174-.108 1.935-.478 3.913-.823 4.598-.802 20.19-.916 24.842-.18 20.382 3.22 35.256 14.008 42.808 31.052 2.543 5.74 4.207 12.06 4.893 18.586.22 2.09.356 40.282.36 100.757l.007 97.4-1.728.223c-7.028.91-17.345 1.14-24.85.556-18.893-1.47-30.294-6.732-37.8-17.45-2.052-2.93-4.676-7.885-5.882-11.11-.41-1.094-.856-1.98-.99-1.97s-1.393 1.51-2.794 3.332c-11.334 14.736-27.987 25.477-46.938 30.274-6.62 1.676-12.552 2.425-20.376 2.574-4.002.076-8.67-.015-10.37-.203z"/>
  </symbol>
</svg>
